/* XPM */
static char * kshisen_xpm[] = {
"34 34 79 1",
" 	c None",
".	c #000000",
"+	c #00A700",
"@	c #00A500",
"#	c #00A400",
"$	c #00A300",
"%	c #00A200",
"&	c #00A100",
"*	c #00A000",
"=	c #009F00",
"-	c #009E00",
";	c #009D00",
">	c #009C00",
",	c #009B00",
"'	c #009A00",
")	c #009900",
"!	c #009800",
"~	c #009600",
"{	c #009500",
"]	c #D7B98D",
"^	c #FFFFC0",
"/	c #C1A67F",
"(	c #009700",
"_	c #A14900",
":	c #FFDCA8",
"<	c #C2261C",
"[	c #C00000",
"}	c #FFFF00",
"|	c #E1C294",
"1	c #268D19",
"2	c #C0C57E",
"3	c #009400",
"4	c #C07055",
"5	c #005500",
"6	c #E4D296",
"7	c #009300",
"8	c #C23E2F",
"9	c #009200",
"0	c #C67254",
"a	c #009100",
"b	c #009000",
"c	c #C44638",
"d	c #D66A54",
"e	c #DCA880",
"f	c #008F00",
"g	c #00A600",
"h	c #008E00",
"i	c #008D00",
"j	c #CEC3BA",
"k	c #FFFFFF",
"l	c #B9AFA7",
"m	c #008C00",
"n	c #AB9F8D",
"o	c #BEAD93",
"p	c #D6BE9B",
"q	c #FFF1E5",
"r	c #800080",
"s	c #DDD1C7",
"t	c #C0C000",
"u	c #ECD377",
"v	c #008B00",
"w	c #DFA59E",
"x	c #924C8C",
"y	c #008A00",
"z	c #A7448C",
"A	c #F2D2C4",
"B	c #96968C",
"C	c #BEB29C",
"D	c #008900",
"E	c #D2969C",
"F	c #C8C6B0",
"G	c #C4BA90",
"H	c #008800",
"I	c #962687",
"J	c #76AE4C",
"K	c #008700",
"L	c #42962C",
"M	c #F6E2B0",
"N	c #F9E7AE",
"..................................",
".++++++++++++++++@#$%&*=-;>,')!~{.",
".++++++++++]^^^^/@]^^^^/;>,')!(~{.",
".+++++++++_^:<[}|_^1:21|>,')!(~{3.",
".+++++++++_^:4[:|_^5:65|,')!(~{37.",
".+++++++++_^[8[[|_^:25:|,'!(~{379.",
".+++++++++_^:0[:|_^:21:|')!({379a.",
".+++++++++_^::[:|_^5625|)!(~{39ab.",
".+++++++++_^:[cd|_^1:21|!(~{379ab.",
".+++++++++_^[e:[|_^5:65|(~{379abf.",
".++++++++g_/||||/_/||||/~{379abfh.",
".++++++++g______-______(~379abfhi.",
".+++]^^^^/#]^^^^/>jkkkkl{]^^^^/im.",
".++_^nop:|_^1:21|_kqrqqs_^t:ut|mv.",
".++_^:::w|_^5:65|_kwxwqs_^[ut[|my.",
".++_^zrzr|_^:25:|_rABArs_^t:ut|vy.",
".++_^::r:|_^:21:|_wqCqws_^::::|yD.",
".++_^:rEr|_^5625|_kFGFqs_^t:ut|DH.",
".++_^I::z|_^1:21|_21J12s_^[ut[|HK.",
".+g_^::rw|_^5:65|_k2L2qs_^t:ut|KK.",
".+@_/||||/_/||||/_lssssl_/||||/KK.",
".g@______;______~______h______KKK.",
".@#$%&*-;>,]^^^^/3]^^^^/m]^^^^/KK.",
".#$%&*=-;,_^t:ut|_^nop:|_^:<[}|KK.",
".$%&*=-;>,_^[ut[|_^:::w|_^:4[:|KK.",
".%&*=-;>,'_^t:ut|_^zrzr|_^[8[[|KK.",
".&*=-;>,')_^::::|_^::r:|_^M0[N|KK.",
".&*-;>,')!_^t:ut|_^:rEr|_^::[:|KK.",
".*=-;>')!(_^[ut[|_^I::z|_^:[cd|KK.",
".=-;>,')(~_^t:ut|_^::rw|_^[e:[|KK.",
".-;>,')!(~_/||||/_/||||/_/||||/KK.",
".;>,')!(~{______i______K______KKK.",
".>,')!(~{379abhimvyDHKKKKKKKKKKKK.",
".................................."};
