/* XPM */
static char * large_kshisen_xpm[] = {
"48 48 78 1",
" 	c None",
".	c #000000",
"+	c #020204",
"@	c #00A800",
"#	c #00A700",
"$	c #00A600",
"%	c #00A500",
"&	c #00A400",
"*	c #00A300",
"=	c #00A200",
"-	c #00A100",
";	c #00A000",
">	c #009F00",
",	c #009E00",
"'	c #009D00",
")	c #009C00",
"!	c #009B00",
"~	c #009A00",
"{	c #009900",
"]	c #009800",
"^	c #D7B98D",
"/	c #FFFFC0",
"(	c #DB9D78",
"_	c #C1A67F",
":	c #009700",
"<	c #A14900",
"[	c #FFDCA8",
"}	c #C00000",
"|	c #C07055",
"1	c #E1C294",
"2	c #C0C57E",
"3	c #005500",
"4	c #009600",
"5	c #FFFF00",
"6	c #FFE288",
"7	c #268D19",
"8	c #009500",
"9	c #E0A67F",
"0	c #E4D296",
"a	c #7EAD53",
"b	c #009400",
"c	c #009300",
"d	c #009200",
"e	c #CC8465",
"f	c #009100",
"g	c #BB674F",
"h	c #009000",
"i	c #008F00",
"j	c #028204",
"k	c #008000",
"l	c #CEC3BA",
"m	c #FFFFFF",
"n	c #B9AFA7",
"o	c #008E00",
"p	c #D6BE9B",
"q	c #BEAD93",
"r	c #AB9F8D",
"s	c #808080",
"t	c #FFF1E5",
"u	c #DDD1C7",
"v	c #008D00",
"w	c #800080",
"x	c #ECD377",
"y	c #C0C000",
"z	c #DDA19D",
"A	c #A7448C",
"B	c #008C00",
"C	c #DFA59E",
"D	c #008B00",
"E	c #992C88",
"F	c #008A00",
"G	c #9C3289",
"H	c #008900",
"I	c #F3C7A4",
"J	c #962687",
"K	c #008800",
"L	c #008700",
"M	c #FFF6C9",
"                                                ",
"                                                ",
"  .....................+++....................  ",
"  .@@@@@@@@@@@@@@@@@@@@#$$%&**=-;;>,'')!~~{]].  ",
"  .@@@@@@@@@@@@@^/(////_$^//////_>,,')!!~{]]:.  ",
"  .@@@@@@@@@@@@</[}[}|[1</23[[231,,')!!~{]]:4.  ",
"  .@@@@@@@@@@@@</[(}}}56</27[[271,')!!~{]]:48.  ",
"  .@@@@@@@@@@@@<([[}}[[1</23[[231')!!~{]]:448.  ",
"  .@@@@@@@@@@@@</}(|}}91</0a230a1))!~{{]:448b.  ",
"  .@@@@@@@@@@@@</[|}}[|1</[[27[[1)!~{{]:448bc.  ",
"  .@@@@@@@@@@@@</[[|}[[(</[[23[[1!~{{]:448bcc.  ",
"  .@@@@@@@@@@@@</[(9}|[1</230a231~{{]::48bbcd.  ",
"  .@@@@@@@@@@@@</e[[}}91</27[[271~{]::48bbcdf.  ",
"  .@@@@@@@@@@@#</}(}g[}1</23[[231{]::48bbcdff.  ",
"  .@@@@@@@@@@#$</[}[[[(1</0a[[0a1]::48bbcdffh.  ",
"  .@@@@@@@@@#$$<_111111_<_111111_]:488bcddfhi.  ",
"  .@@@@@@@@##$%<<<<<<<<j<<<<<<<<]:488bcddfhii.  ",
"  .@@@@^//////_k^//////_klmmmmmmn4^//////_iio.  ",
"  .@@@</[[pqrs1</23[[231<mttttttu</[[[[[[1iov.  ",
"  .@@@</[rqp[[1</27[[271<mttwtttu</xyxxyx1ovv.  ",
"  .@@@</[[[[[[1</23[[231<mtzAzttu</y}yy}y1vvB.  ",
"  .@@@</[[[[Cw1</0a230a1<mtCsCttu</xyxxyx1vBD.  ",
"  .@@@</CEwAA[1</[[27[[1<wCtrtCwu</[[[[[[1BDF.  ",
"  .@@#</[[[w[[1</[[23[[1<CrtqtrCu</[[[[[[1DDF.  ",
"  .@#$</[[wCG[1</230a231<mtqpqttu</xyxxyx1DFH.  ",
"  .#$$</IJC[w[1</27[[271<mtaaattu</y}yy}y1FHK+  ",
"  .$$%</I[[[E[1</23[[231<2a7a7a2u</xyxxyx1HKK+  ",
"  .$%&</[[[wz[1</0a[[0a1<mt272ttu</[[[[[[1HKL+  ",
"  .%&&<_111111^<_111111_<nuuuuuun<_111111_KLL+  ",
"  .&&*<<<<<<<<)<<<<<<<<j<<<<<<<<j<<<<<<<<KLLL+  ",
"  .&*=--;>,,')!!^/////M_k^//////_k^/(////_LLL+  ",
"  .*=--;>,,')!!</[[[[[[1</[[pqrs1</[}[}|[1LLL+  ",
"  .==-;>>,'))!~</xyxxyx1</[rqp[[1</[(}}}51LLL+  ",
"  .=-;>>,'))!~{</y}yy}y1</[[[[[[1<([[}}[[1LLL+  ",
"  .-;>>,'))!~{{</xyxxyx1</[[[[Cw1</}(|}}91LLL+  ",
"  .;>>,'))!~{{]</[[[[[[1</CEwAA[1</[|}}[|1LLL+  ",
"  .;>,'')!~~{]:</[[[[[[1</[[[w[[1</[[|}[[(LLL+  ",
"  .>,'')!~~{]::</xyxxyx1</[[wCG[1</[(9}|[1LLL+  ",
"  .,'')!~~{]::4</y}yy}y1</IJC[w[1</e[[}}91LLL.  ",
"  .'')!~~{]]:48</xyxxyx1</I[[[E[1</}(}g[}1LLL.  ",
"  .')!!~{]]:488</[[[[[[1</[[[wz[1</[}[[[(1LLL.  ",
"  .)!!~{]]:488b<_111111_<_111111_<_111111_LLL.  ",
"  .!!~{]]:488bc<<<<<<<<B<<<<<<<<L<<<<<<<<LLLL.  ",
"  .!~{]]:448bccdfhhiovvBDFFHKLLLLLLLLLLLLLLLL.  ",
"  .~{{]:448bccdfhhiovvBDFFHKLLLLLLLLLLLLLLLLL.  ",
"  .+++++++++++++++++++.........+..............  ",
"                                                ",
"                                                "};
