/* XPM */
static char * paused_xpm[] = {
"262 51 2 1",
" 	c None",
".	c #000000",
"                                                                                                                                                                                                                                                                 .    ",
"                                                                                                                                                                                                                                                               ....   ",
"                                                                                                                                                                                                                                                               ....   ",
"                                                                                                                                                                                                                                                               ....   ",
"              .............                                                                                                                                                                                                                                    ...    ",
"           ..................                                                                                                                                                                                                                                   ..    ",
"         ......       .......                                                                                                                                                                                                                                   ..    ",
"       ....               ...                                                                                                                                                                                                                                   ..    ",
"      ....                 ..                                                                                                                                                                                                                                   ..    ",
"     ...                                                                                                                                                                                                                                                        ..    ",
"    ...                                                                                                                                                                                                                                                         ...   ",
"    ..                                                                                                                                                                                                                                                          ...   ",
"   ..                                                                                                                                ...                                                                                                                        ...   ",
"  ...                                .......                                                                                        ....                      ........                                                                                          ...   ",
"  ..                               ...........            ...                                              ...                      ....     ....           ...........              ..             .          ........                ...                      ...   ",
" ...                              ...    ......          ....       ..             ..                  .........                     ...  ..........        ..     .....            ....         ....        ..........            .........                  ......  ",
" ...                                       ....          ....   ........       .........              ....  .....                    .....     ......                ....           ...          ....       ...     ..           ....   .....              .......... ",
" ..                                          ...         ...  ....  .....    .....  .....           ...        ...                   ...          ....                ...           ...          ...       ..                   ...       ...           ............. ",
" ..                                          ...          .....       ...  ....       ...          ...         ...                 ....            ....                ..           ..            ..       ..                  ...         ..          ...      ...   ",
"...                                           ..         ....          ......          ...         ..           ..                .....            ....                ..          ...            ..       ..                 ...          ...        ..        ...   ",
"...                                           ..         ....          ....            ...        ..            ...                  ..             ...                ...         ...            ..       ..                ...           ...       ..         ...   ",
"...                                           ..         ...           ....             ..       ...           ....                  ..             ...                ...         ...            ..       ...               ..            ...      ..          ...   ",
"...                     ....                  ..          ..           ....             ..       ..................                  ..             ...                ...         ..             ..       .....            ..................     ..           ...   ",
"...                     ...                 .....         ..            ..              ..       ....           .                    ..             ...               .....        ..             ..         .......        ....                   ..            ..   ",
" ...                    ...              ........         ..            ..              ..      ...                                  ..             ...           ........         ..             ..           .......      ..                    ..             ..   ",
" ...                    ...            .........          ..            ..              ..      ..                                   ..             ...         ..........         ..             ..              .....     ..                    ..             ..   ",
" ....                   ...          ...     ...          ..            ..              ..      ..                                   ..             ..         ..      ...        ...            ...                ....   ...                   ...             ..   ",
" ....                   ...         ..        ..          ..            ..              ..      ..                                   ..            ...       ..        ...        ..             ....                ...   ...                   ...             ..   ",
"  ....                  ...        .          ..         ...            ..              ..      ...                                  ..            ..       ..         ...        ..             ...                 ...   ...                   ...             ..   ",
"   ....                 ...       ..          ..         ...            ..             ...      ...                                  ..           ..       ..          ...        ..             ...                  ..    ..                   ...             ...  ",
"   .....                ...      ..           ..         ...            ..             ..       ...                                  ..          ..        .           ...        ..            ....                  ..    ..                   ...             ...  ",
"    ......              ...      ..          ...         ...            ..             ..        ...                                ...         ..        ..          ....        ...          .....                 ...    ...                   ...           ....  ",
"      ......            ...      ..          ...         ...           ...            ...        ....                               ...       ...         ...         ....        ...         .. ...                 ..      ....                 ...           ....  ",
"       ........         ...      ...       .....         ...           ...            ..          .....                             ....    ...           ....       .....        ....      ...   ..                ...      .....                .....        .....  ",
"         ...................      ....   .......         ...           ...           ...           ......     ....                  .........              .....  ........         ....    ..     ..       .       ...        .......    .....     ............  ...  ",
"          .................        ........   ...        ...           ...           ...             .............                  ........                ........   ...          ........     ...       ...   ....           ..............       .........   ...  ",
"             ..............          ...      ...        ...           ..           ....                ..........                   .....                    ...      ...           .....       ...       ........                ..........          ....      ...  ",
"                                              ...                                   ...                                              ..                                ...                                                                                       ...  ",
"                                             ....                                   ...                                              ..                                ...                                                                                       .... ",
"                                             ....                                                                                    ..                               ....                                                                                       .... ",
"                                             ...                                                                                     ..                               ...                                                                                        .... ",
"                                                                                                                                     ..                                                                                                                          ...  ",
"                                                                                                                                     ..                                                                                                                           .   ",
"                                                                                                                                     ..                                                                                                                               ",
"                                                                                                                                     ..                                                                                                                               ",
"                                                                                                                                     ..                                                                                                                               ",
"                                                                                                                                     ..                                                                                                                               ",
"                                                                                                                                     ..                                                                                                                               ",
"                                                                                                                                    ....                                                                                                                              ",
"                                                                                                                                    ....                                                                                                                              ",
"                                                                                                                                                                                                                                                                      "};
